# xmcd
#
# Track frame offsets:
#	150
#	21415
#	38597
#	57130
#	79023
#	101851
#	129519
#	163174
#	194571
#	214221
#	233155
#	248467
#	302067
#
# Disc length: 4389 seconds
# Revision: 0
# Processed by: cddbd v1.5.2PL0 Copyright (c) Steve Scherf et al.
# Submitted via: dBpowerAMP V12.0
#
DISCID=ad11230d
DTITLE=The Boneshakers - Live: The Great American Music Hall
DYEAR=1997
DGENRE=Blues-Rock
TTITLE0=This Train Insane
TTITLE1=Parttime Man
TTITLE2=I Blew Up The United States
TTITLE3=She's A Heartache
TTITLE4=Rush
TTITLE5=Let's Straighten It Out
TTITLE6=Don't Change Horses In The Middle Of The Stream
TTITLE7=Cold Sweat
TTITLE8=Don't Tear My Heart Apart
TTITLE9=Hype
TTITLE10=Water In The Well
TTITLE11=Wind Cries Mary-Breakdown The Walls
TTITLE12=DATA
EXTD=
EXTT0=
EXTT1=
EXTT2=
EXTT3=
EXTT4=
EXTT5=
EXTT6=
EXTT7=
EXTT8=
EXTT9=
EXTT10=
EXTT11=
EXTT12=
PLAYORDER=
